<mxfile host="Electron" agent="Mozilla/5.0 (Windows NT 10.0; Win64; x64) AppleWebKit/537.36 (KHTML, like Gecko) draw.io/28.1.2 Chrome/138.0.7204.243 Electron/37.4.0 Safari/537.36" version="28.1.2">
  <diagram name="Page-1" id="nLHSv5qawO0i9cInuJ0M">
    <mxGraphModel dx="878" dy="634" grid="1" gridSize="10" guides="1" tooltips="1" connect="1" arrows="1" fold="1" page="1" pageScale="1" pageWidth="850" pageHeight="1100" math="0" shadow="0">
      <root>
        <mxCell id="0" />
        <mxCell id="1" parent="0" />
        <mxCell id="IS17HLQf8USK1EShI2KF-44" value="" style="rounded=0;whiteSpace=wrap;html=1;fillColor=none;align=left;" vertex="1" parent="1">
          <mxGeometry x="220" y="1190" width="220" height="270" as="geometry" />
        </mxCell>
        <mxCell id="IS17HLQf8USK1EShI2KF-1" value="Researcher" style="shape=umlActor;verticalLabelPosition=bottom;verticalAlign=top;html=1;outlineConnect=0;" vertex="1" parent="1">
          <mxGeometry x="400" y="50" width="30" height="60" as="geometry" />
        </mxCell>
        <mxCell id="IS17HLQf8USK1EShI2KF-5" value="" style="rounded=0;whiteSpace=wrap;html=1;fillColor=none;strokeWidth=1;" vertex="1" parent="1">
          <mxGeometry x="40" y="170" width="760" height="430" as="geometry" />
        </mxCell>
        <mxCell id="IS17HLQf8USK1EShI2KF-6" value="Python Layer" style="text;html=1;align=center;verticalAlign=middle;whiteSpace=wrap;rounded=0;" vertex="1" parent="1">
          <mxGeometry x="40" y="140" width="80" height="30" as="geometry" />
        </mxCell>
        <mxCell id="IS17HLQf8USK1EShI2KF-7" value="" style="rounded=0;whiteSpace=wrap;html=1;fillColor=none;strokeWidth=1;" vertex="1" parent="1">
          <mxGeometry x="200" y="630" width="210" height="90" as="geometry" />
        </mxCell>
        <mxCell id="IS17HLQf8USK1EShI2KF-8" value="Java Layer" style="text;html=1;align=center;verticalAlign=middle;whiteSpace=wrap;rounded=0;" vertex="1" parent="1">
          <mxGeometry x="200" y="600" width="80" height="30" as="geometry" />
        </mxCell>
        <mxCell id="IS17HLQf8USK1EShI2KF-9" value="EventStream" style="rounded=1;whiteSpace=wrap;html=1;" vertex="1" parent="1">
          <mxGeometry x="240" y="315" width="200" height="30" as="geometry" />
        </mxCell>
        <mxCell id="IS17HLQf8USK1EShI2KF-10" value="Datastreams" style="rounded=1;whiteSpace=wrap;html=1;" vertex="1" parent="1">
          <mxGeometry x="250" y="200" width="120" height="30" as="geometry" />
        </mxCell>
        <mxCell id="IS17HLQf8USK1EShI2KF-11" value="Imputer Manager (Kalman Filter..)" style="rounded=1;whiteSpace=wrap;html=1;" vertex="1" parent="1">
          <mxGeometry x="90" y="450" width="120" height="30" as="geometry" />
        </mxCell>
        <mxCell id="IS17HLQf8USK1EShI2KF-12" value="" style="endArrow=classic;html=1;rounded=0;exitX=0;exitY=0.5;exitDx=0;exitDy=0;entryX=0.25;entryY=0;entryDx=0;entryDy=0;curved=1;" edge="1" parent="1" source="IS17HLQf8USK1EShI2KF-9" target="IS17HLQf8USK1EShI2KF-11">
          <mxGeometry width="50" height="50" relative="1" as="geometry">
            <mxPoint x="168.24" y="345.00000000000006" as="sourcePoint" />
            <mxPoint x="169.48000000000002" y="432.19" as="targetPoint" />
            <Array as="points">
              <mxPoint x="80" y="370" />
            </Array>
          </mxGeometry>
        </mxCell>
        <mxCell id="IS17HLQf8USK1EShI2KF-19" value="Sends Observed Events" style="edgeLabel;html=1;align=center;verticalAlign=middle;resizable=0;points=[];" vertex="1" connectable="0" parent="IS17HLQf8USK1EShI2KF-12">
          <mxGeometry x="-0.2184" relative="1" as="geometry">
            <mxPoint x="15" y="25" as="offset" />
          </mxGeometry>
        </mxCell>
        <mxCell id="IS17HLQf8USK1EShI2KF-13" value="" style="endArrow=classic;html=1;rounded=0;exitX=0.821;exitY=0;exitDx=0;exitDy=0;exitPerimeter=0;entryX=0.306;entryY=0.986;entryDx=0;entryDy=0;entryPerimeter=0;curved=1;" edge="1" parent="1" source="IS17HLQf8USK1EShI2KF-11" target="IS17HLQf8USK1EShI2KF-9">
          <mxGeometry width="50" height="50" relative="1" as="geometry">
            <mxPoint x="270" y="410" as="sourcePoint" />
            <mxPoint x="320" y="360" as="targetPoint" />
            <Array as="points">
              <mxPoint x="260" y="420" />
            </Array>
          </mxGeometry>
        </mxCell>
        <mxCell id="IS17HLQf8USK1EShI2KF-20" value="Publishes Imputed Events" style="edgeLabel;html=1;align=center;verticalAlign=middle;resizable=0;points=[];" vertex="1" connectable="0" parent="IS17HLQf8USK1EShI2KF-13">
          <mxGeometry x="0.0111" y="3" relative="1" as="geometry">
            <mxPoint x="-7" y="-10" as="offset" />
          </mxGeometry>
        </mxCell>
        <mxCell id="IS17HLQf8USK1EShI2KF-14" value="" style="endArrow=classic;html=1;rounded=0;exitX=0.5;exitY=1;exitDx=0;exitDy=0;entryX=0.5;entryY=0;entryDx=0;entryDy=0;" edge="1" parent="1" source="IS17HLQf8USK1EShI2KF-10" target="IS17HLQf8USK1EShI2KF-9">
          <mxGeometry width="50" height="50" relative="1" as="geometry">
            <mxPoint x="270" y="410" as="sourcePoint" />
            <mxPoint x="320" y="360" as="targetPoint" />
          </mxGeometry>
        </mxCell>
        <mxCell id="IS17HLQf8USK1EShI2KF-24" value="Sends Observed Events" style="edgeLabel;html=1;align=center;verticalAlign=middle;resizable=0;points=[];" vertex="1" connectable="0" parent="IS17HLQf8USK1EShI2KF-14">
          <mxGeometry x="-0.1209" y="-1" relative="1" as="geometry">
            <mxPoint as="offset" />
          </mxGeometry>
        </mxCell>
        <mxCell id="IS17HLQf8USK1EShI2KF-17" value="CEPManager&lt;div&gt;(Esper)&lt;/div&gt;" style="rounded=1;whiteSpace=wrap;html=1;" vertex="1" parent="1">
          <mxGeometry x="270" y="660" width="120" height="30" as="geometry" />
        </mxCell>
        <mxCell id="IS17HLQf8USK1EShI2KF-18" value="" style="endArrow=classic;html=1;rounded=0;entryX=0.333;entryY=0.007;entryDx=0;entryDy=0;curved=1;entryPerimeter=0;exitX=0.5;exitY=1;exitDx=0;exitDy=0;" edge="1" parent="1" source="IS17HLQf8USK1EShI2KF-9" target="IS17HLQf8USK1EShI2KF-17">
          <mxGeometry width="50" height="50" relative="1" as="geometry">
            <mxPoint x="340" y="350" as="sourcePoint" />
            <mxPoint x="460" y="360" as="targetPoint" />
            <Array as="points">
              <mxPoint x="250" y="390" />
            </Array>
          </mxGeometry>
        </mxCell>
        <mxCell id="IS17HLQf8USK1EShI2KF-21" value="Sends Imputed Events" style="edgeLabel;html=1;align=center;verticalAlign=middle;resizable=0;points=[];" vertex="1" connectable="0" parent="IS17HLQf8USK1EShI2KF-18">
          <mxGeometry x="0.1864" y="-20" relative="1" as="geometry">
            <mxPoint x="23" y="-25" as="offset" />
          </mxGeometry>
        </mxCell>
        <mxCell id="IS17HLQf8USK1EShI2KF-22" value="" style="endArrow=classic;html=1;rounded=0;entryX=0.5;entryY=0;entryDx=0;entryDy=0;curved=1;" edge="1" parent="1" source="IS17HLQf8USK1EShI2KF-1" target="IS17HLQf8USK1EShI2KF-10">
          <mxGeometry width="50" height="50" relative="1" as="geometry">
            <mxPoint x="320" y="310" as="sourcePoint" />
            <mxPoint x="370" y="260" as="targetPoint" />
            <Array as="points">
              <mxPoint x="330" y="140" />
            </Array>
          </mxGeometry>
        </mxCell>
        <mxCell id="IS17HLQf8USK1EShI2KF-23" value="Configures Sensor Data" style="edgeLabel;html=1;align=center;verticalAlign=middle;resizable=0;points=[];" vertex="1" connectable="0" parent="IS17HLQf8USK1EShI2KF-22">
          <mxGeometry x="0.0674" y="10" relative="1" as="geometry">
            <mxPoint as="offset" />
          </mxGeometry>
        </mxCell>
        <mxCell id="IS17HLQf8USK1EShI2KF-25" value="" style="endArrow=classic;html=1;rounded=0;exitX=0.615;exitY=0.141;exitDx=0;exitDy=0;exitPerimeter=0;entryX=0.75;entryY=1;entryDx=0;entryDy=0;curved=1;" edge="1" parent="1" source="IS17HLQf8USK1EShI2KF-17" target="IS17HLQf8USK1EShI2KF-9">
          <mxGeometry width="50" height="50" relative="1" as="geometry">
            <mxPoint x="330" y="520" as="sourcePoint" />
            <mxPoint x="380" y="470" as="targetPoint" />
            <Array as="points">
              <mxPoint x="410" y="460" />
            </Array>
          </mxGeometry>
        </mxCell>
        <mxCell id="IS17HLQf8USK1EShI2KF-26" value="Publishes Matched Events" style="edgeLabel;html=1;align=center;verticalAlign=middle;resizable=0;points=[];" vertex="1" connectable="0" parent="IS17HLQf8USK1EShI2KF-25">
          <mxGeometry x="-0.1001" y="26" relative="1" as="geometry">
            <mxPoint y="19" as="offset" />
          </mxGeometry>
        </mxCell>
        <mxCell id="IS17HLQf8USK1EShI2KF-27" value="Logger" style="rounded=1;whiteSpace=wrap;html=1;" vertex="1" parent="1">
          <mxGeometry x="480" y="480" width="120" height="30" as="geometry" />
        </mxCell>
        <mxCell id="IS17HLQf8USK1EShI2KF-28" value="" style="endArrow=classic;html=1;rounded=0;exitX=0.91;exitY=0.974;exitDx=0;exitDy=0;exitPerimeter=0;entryX=0.154;entryY=0.09;entryDx=0;entryDy=0;entryPerimeter=0;curved=1;" edge="1" parent="1" source="IS17HLQf8USK1EShI2KF-9" target="IS17HLQf8USK1EShI2KF-27">
          <mxGeometry width="50" height="50" relative="1" as="geometry">
            <mxPoint x="380" y="450" as="sourcePoint" />
            <mxPoint x="430" y="400" as="targetPoint" />
            <Array as="points">
              <mxPoint x="400" y="410" />
            </Array>
          </mxGeometry>
        </mxCell>
        <mxCell id="IS17HLQf8USK1EShI2KF-29" value="Sends Observed, Imputed&lt;span style=&quot;background-color: light-dark(#ffffff, var(--ge-dark-color, #121212)); color: light-dark(rgb(0, 0, 0), rgb(255, 255, 255));&quot;&gt;,&lt;/span&gt;&lt;div&gt;&lt;span style=&quot;background-color: light-dark(#ffffff, var(--ge-dark-color, #121212)); color: light-dark(rgb(0, 0, 0), rgb(255, 255, 255));&quot;&gt;&amp;nbsp;and Matched Events&lt;/span&gt;&lt;/div&gt;" style="edgeLabel;html=1;align=center;verticalAlign=middle;resizable=0;points=[];" vertex="1" connectable="0" parent="IS17HLQf8USK1EShI2KF-28">
          <mxGeometry x="0.2265" y="16" relative="1" as="geometry">
            <mxPoint x="18" as="offset" />
          </mxGeometry>
        </mxCell>
        <mxCell id="IS17HLQf8USK1EShI2KF-30" value="&lt;font style=&quot;font-size: 11px;&quot;&gt;events csv&lt;/font&gt;" style="shape=note;whiteSpace=wrap;html=1;backgroundOutline=1;darkOpacity=0.05;size=6;" vertex="1" parent="1">
          <mxGeometry x="490" y="550" width="40" height="40" as="geometry" />
        </mxCell>
        <mxCell id="IS17HLQf8USK1EShI2KF-31" value="Evaluator" style="rounded=1;whiteSpace=wrap;html=1;" vertex="1" parent="1">
          <mxGeometry x="650" y="555" width="140" height="30" as="geometry" />
        </mxCell>
        <mxCell id="IS17HLQf8USK1EShI2KF-32" value="" style="endArrow=classic;html=1;rounded=0;exitX=0.5;exitY=1;exitDx=0;exitDy=0;entryX=0.5;entryY=0;entryDx=0;entryDy=0;entryPerimeter=0;curved=1;" edge="1" parent="1" source="IS17HLQf8USK1EShI2KF-27" target="IS17HLQf8USK1EShI2KF-30">
          <mxGeometry width="50" height="50" relative="1" as="geometry">
            <mxPoint x="470" y="550" as="sourcePoint" />
            <mxPoint x="520" y="500" as="targetPoint" />
            <Array as="points">
              <mxPoint x="550" y="540" />
            </Array>
          </mxGeometry>
        </mxCell>
        <mxCell id="IS17HLQf8USK1EShI2KF-34" value="Outputs" style="edgeLabel;html=1;align=center;verticalAlign=middle;resizable=0;points=[];" vertex="1" connectable="0" parent="IS17HLQf8USK1EShI2KF-32">
          <mxGeometry x="-0.4574" y="-2" relative="1" as="geometry">
            <mxPoint as="offset" />
          </mxGeometry>
        </mxCell>
        <mxCell id="IS17HLQf8USK1EShI2KF-33" value="" style="endArrow=classic;html=1;rounded=0;exitX=0;exitY=0.5;exitDx=0;exitDy=0;entryX=0;entryY=0;entryDx=40;entryDy=23;entryPerimeter=0;" edge="1" parent="1" source="IS17HLQf8USK1EShI2KF-31" target="IS17HLQf8USK1EShI2KF-30">
          <mxGeometry width="50" height="50" relative="1" as="geometry">
            <mxPoint x="470" y="550" as="sourcePoint" />
            <mxPoint x="520" y="500" as="targetPoint" />
          </mxGeometry>
        </mxCell>
        <mxCell id="IS17HLQf8USK1EShI2KF-35" value="Processes" style="edgeLabel;html=1;align=center;verticalAlign=middle;resizable=0;points=[];" vertex="1" connectable="0" parent="IS17HLQf8USK1EShI2KF-33">
          <mxGeometry x="-0.0903" y="-2" relative="1" as="geometry">
            <mxPoint as="offset" />
          </mxGeometry>
        </mxCell>
        <mxCell id="IS17HLQf8USK1EShI2KF-36" value="" style="endArrow=classic;html=1;rounded=0;entryX=0.5;entryY=0;entryDx=0;entryDy=0;curved=1;" edge="1" parent="1" source="IS17HLQf8USK1EShI2KF-1" target="IS17HLQf8USK1EShI2KF-31">
          <mxGeometry width="50" height="50" relative="1" as="geometry">
            <mxPoint x="610" y="340" as="sourcePoint" />
            <mxPoint x="660" y="290" as="targetPoint" />
            <Array as="points">
              <mxPoint x="670" y="290" />
            </Array>
          </mxGeometry>
        </mxCell>
        <mxCell id="IS17HLQf8USK1EShI2KF-37" value="Run Analysis" style="edgeLabel;html=1;align=center;verticalAlign=middle;resizable=0;points=[];" vertex="1" connectable="0" parent="IS17HLQf8USK1EShI2KF-36">
          <mxGeometry x="0.0094" y="-49" relative="1" as="geometry">
            <mxPoint as="offset" />
          </mxGeometry>
        </mxCell>
        <mxCell id="IS17HLQf8USK1EShI2KF-40" value="&lt;b&gt;Stream Manager&lt;/b&gt;&lt;div&gt;&lt;div&gt;produces observed events&lt;/div&gt;&lt;/div&gt;" style="rounded=0;whiteSpace=wrap;html=1;" vertex="1" parent="1">
          <mxGeometry x="40" y="1310" width="120" height="60" as="geometry" />
        </mxCell>
        <mxCell id="IS17HLQf8USK1EShI2KF-41" value="&lt;b&gt;Observed Partition&lt;/b&gt;&lt;div&gt;holds observed events from sensors/simulations&lt;/div&gt;" style="rounded=0;whiteSpace=wrap;html=1;" vertex="1" parent="1">
          <mxGeometry x="250" y="1220" width="160" height="60" as="geometry" />
        </mxCell>
        <mxCell id="IS17HLQf8USK1EShI2KF-42" value="&lt;b&gt;Imputed Partition&lt;/b&gt;&lt;div&gt;holds events with missing data filled&lt;/div&gt;" style="rounded=0;whiteSpace=wrap;html=1;" vertex="1" parent="1">
          <mxGeometry x="250" y="1290" width="160" height="60" as="geometry" />
        </mxCell>
        <mxCell id="IS17HLQf8USK1EShI2KF-43" value="&lt;b&gt;Matched Partition&lt;/b&gt;&lt;div&gt;holds events annotated with detected pattern matches&lt;/div&gt;" style="rounded=0;whiteSpace=wrap;html=1;" vertex="1" parent="1">
          <mxGeometry x="250" y="1370" width="160" height="60" as="geometry" />
        </mxCell>
        <mxCell id="IS17HLQf8USK1EShI2KF-45" value="Event Stream" style="text;html=1;align=center;verticalAlign=middle;whiteSpace=wrap;rounded=0;" vertex="1" parent="1">
          <mxGeometry x="280" y="1160" width="100" height="30" as="geometry" />
        </mxCell>
        <mxCell id="IS17HLQf8USK1EShI2KF-46" value="&lt;b&gt;ImputerManager&lt;/b&gt;&lt;div&gt;consumes observed events and publishes imputed events&lt;/div&gt;" style="rounded=0;whiteSpace=wrap;html=1;" vertex="1" parent="1">
          <mxGeometry x="650" y="1240" width="120" height="60" as="geometry" />
        </mxCell>
        <mxCell id="IS17HLQf8USK1EShI2KF-47" value="&lt;b&gt;CEPManager&lt;/b&gt;&lt;div&gt;consumes imputed events and publishes pattern matches&lt;/div&gt;" style="rounded=0;whiteSpace=wrap;html=1;" vertex="1" parent="1">
          <mxGeometry x="650" y="1330" width="120" height="60" as="geometry" />
        </mxCell>
        <mxCell id="IS17HLQf8USK1EShI2KF-48" value="&lt;b&gt;Logger&lt;/b&gt;&lt;div&gt;subscribes to all partitions and maintains history of event stream&lt;/div&gt;" style="rounded=0;whiteSpace=wrap;html=1;" vertex="1" parent="1">
          <mxGeometry x="560" y="1460" width="160" height="60" as="geometry" />
        </mxCell>
        <mxCell id="IS17HLQf8USK1EShI2KF-49" value="&lt;b&gt;Evaluator&lt;/b&gt;&lt;div&gt;reads logs and computes metrics (RMSE, MAE, accuracy)&lt;/div&gt;" style="rounded=0;whiteSpace=wrap;html=1;" vertex="1" parent="1">
          <mxGeometry x="560" y="1600" width="160" height="60" as="geometry" />
        </mxCell>
        <mxCell id="IS17HLQf8USK1EShI2KF-50" value="&lt;font style=&quot;font-size: 10px;&quot;&gt;Logical partitioning of ZMQ stream&lt;/font&gt;" style="text;html=1;align=center;verticalAlign=middle;whiteSpace=wrap;rounded=0;" vertex="1" parent="1">
          <mxGeometry x="230" y="1190" width="200" height="20" as="geometry" />
        </mxCell>
        <mxCell id="IS17HLQf8USK1EShI2KF-51" value="" style="endArrow=classic;html=1;rounded=0;exitX=0.5;exitY=1;exitDx=0;exitDy=0;entryX=0;entryY=0.5;entryDx=0;entryDy=0;" edge="1" parent="1" source="IS17HLQf8USK1EShI2KF-44" target="IS17HLQf8USK1EShI2KF-48">
          <mxGeometry width="50" height="50" relative="1" as="geometry">
            <mxPoint x="340" y="1360" as="sourcePoint" />
            <mxPoint x="390" y="1310" as="targetPoint" />
            <Array as="points">
              <mxPoint x="330" y="1490" />
            </Array>
          </mxGeometry>
        </mxCell>
        <mxCell id="IS17HLQf8USK1EShI2KF-52" value="Subscribes to all partitions" style="edgeLabel;html=1;align=center;verticalAlign=middle;resizable=0;points=[];" vertex="1" connectable="0" parent="IS17HLQf8USK1EShI2KF-51">
          <mxGeometry x="-0.1276" y="4" relative="1" as="geometry">
            <mxPoint x="17" y="4" as="offset" />
          </mxGeometry>
        </mxCell>
        <mxCell id="IS17HLQf8USK1EShI2KF-53" value="" style="endArrow=classic;html=1;rounded=0;exitX=0.5;exitY=1;exitDx=0;exitDy=0;entryX=0.5;entryY=0;entryDx=0;entryDy=0;" edge="1" parent="1" source="IS17HLQf8USK1EShI2KF-48" target="IS17HLQf8USK1EShI2KF-49">
          <mxGeometry width="50" height="50" relative="1" as="geometry">
            <mxPoint x="420" y="1530" as="sourcePoint" />
            <mxPoint x="470" y="1480" as="targetPoint" />
          </mxGeometry>
        </mxCell>
        <mxCell id="IS17HLQf8USK1EShI2KF-54" value="Pass CSV for evaluation" style="edgeLabel;html=1;align=center;verticalAlign=middle;resizable=0;points=[];" vertex="1" connectable="0" parent="IS17HLQf8USK1EShI2KF-53">
          <mxGeometry x="-0.1941" y="-2" relative="1" as="geometry">
            <mxPoint as="offset" />
          </mxGeometry>
        </mxCell>
        <mxCell id="IS17HLQf8USK1EShI2KF-55" value="" style="endArrow=classic;html=1;rounded=0;exitX=1;exitY=0.25;exitDx=0;exitDy=0;entryX=0;entryY=0.25;entryDx=0;entryDy=0;" edge="1" parent="1" source="IS17HLQf8USK1EShI2KF-41" target="IS17HLQf8USK1EShI2KF-46">
          <mxGeometry width="50" height="50" relative="1" as="geometry">
            <mxPoint x="420" y="1360" as="sourcePoint" />
            <mxPoint x="470" y="1310" as="targetPoint" />
          </mxGeometry>
        </mxCell>
        <mxCell id="IS17HLQf8USK1EShI2KF-56" value="Consumes observed events" style="edgeLabel;html=1;align=center;verticalAlign=middle;resizable=0;points=[];" vertex="1" connectable="0" parent="IS17HLQf8USK1EShI2KF-55">
          <mxGeometry x="0.0499" y="-4" relative="1" as="geometry">
            <mxPoint x="-4" y="-9" as="offset" />
          </mxGeometry>
        </mxCell>
        <mxCell id="IS17HLQf8USK1EShI2KF-57" value="" style="endArrow=classic;html=1;rounded=0;exitX=0;exitY=0.75;exitDx=0;exitDy=0;entryX=1;entryY=0.25;entryDx=0;entryDy=0;" edge="1" parent="1" source="IS17HLQf8USK1EShI2KF-46" target="IS17HLQf8USK1EShI2KF-42">
          <mxGeometry width="50" height="50" relative="1" as="geometry">
            <mxPoint x="420" y="1360" as="sourcePoint" />
            <mxPoint x="470" y="1310" as="targetPoint" />
          </mxGeometry>
        </mxCell>
        <mxCell id="IS17HLQf8USK1EShI2KF-58" value="Publishes imputed events" style="edgeLabel;html=1;align=center;verticalAlign=middle;resizable=0;points=[];" vertex="1" connectable="0" parent="IS17HLQf8USK1EShI2KF-57">
          <mxGeometry x="-0.1348" y="1" relative="1" as="geometry">
            <mxPoint as="offset" />
          </mxGeometry>
        </mxCell>
        <mxCell id="IS17HLQf8USK1EShI2KF-59" value="" style="endArrow=classic;html=1;rounded=0;exitX=1;exitY=0.75;exitDx=0;exitDy=0;entryX=0;entryY=0.25;entryDx=0;entryDy=0;" edge="1" parent="1" source="IS17HLQf8USK1EShI2KF-42" target="IS17HLQf8USK1EShI2KF-47">
          <mxGeometry width="50" height="50" relative="1" as="geometry">
            <mxPoint x="420" y="1360" as="sourcePoint" />
            <mxPoint x="470" y="1310" as="targetPoint" />
          </mxGeometry>
        </mxCell>
        <mxCell id="IS17HLQf8USK1EShI2KF-60" value="consumes imputed events" style="edgeLabel;html=1;align=center;verticalAlign=middle;resizable=0;points=[];" vertex="1" connectable="0" parent="IS17HLQf8USK1EShI2KF-59">
          <mxGeometry x="0.1988" y="4" relative="1" as="geometry">
            <mxPoint as="offset" />
          </mxGeometry>
        </mxCell>
        <mxCell id="IS17HLQf8USK1EShI2KF-61" value="" style="endArrow=classic;html=1;rounded=0;exitX=0;exitY=0.75;exitDx=0;exitDy=0;entryX=1;entryY=0.25;entryDx=0;entryDy=0;" edge="1" parent="1" source="IS17HLQf8USK1EShI2KF-47" target="IS17HLQf8USK1EShI2KF-43">
          <mxGeometry width="50" height="50" relative="1" as="geometry">
            <mxPoint x="420" y="1360" as="sourcePoint" />
            <mxPoint x="470" y="1310" as="targetPoint" />
          </mxGeometry>
        </mxCell>
        <mxCell id="IS17HLQf8USK1EShI2KF-62" value="Publishes matched events" style="edgeLabel;html=1;align=center;verticalAlign=middle;resizable=0;points=[];" vertex="1" connectable="0" parent="IS17HLQf8USK1EShI2KF-61">
          <mxGeometry x="-0.0042" y="2" relative="1" as="geometry">
            <mxPoint as="offset" />
          </mxGeometry>
        </mxCell>
        <mxCell id="IS17HLQf8USK1EShI2KF-63" value="" style="endArrow=classic;html=1;rounded=0;exitX=1;exitY=0.25;exitDx=0;exitDy=0;entryX=0;entryY=0.25;entryDx=0;entryDy=0;" edge="1" parent="1" source="IS17HLQf8USK1EShI2KF-40" target="IS17HLQf8USK1EShI2KF-41">
          <mxGeometry width="50" height="50" relative="1" as="geometry">
            <mxPoint x="310" y="1360" as="sourcePoint" />
            <mxPoint x="360" y="1310" as="targetPoint" />
          </mxGeometry>
        </mxCell>
        <mxCell id="IS17HLQf8USK1EShI2KF-64" value="Publishes observed&amp;nbsp;&lt;div&gt;events&lt;/div&gt;" style="edgeLabel;html=1;align=center;verticalAlign=middle;resizable=0;points=[];" vertex="1" connectable="0" parent="IS17HLQf8USK1EShI2KF-63">
          <mxGeometry x="0.1797" relative="1" as="geometry">
            <mxPoint x="-33" y="8" as="offset" />
          </mxGeometry>
        </mxCell>
      </root>
    </mxGraphModel>
  </diagram>
</mxfile>
